HIERARCHY
ROOT Hips
{
	OFFSET 0.00000 0.00000 0.00000
	CHANNELS 6 Xposition Yposition Zposition Zrotation Yrotation Xrotation 
	JOINT LHipJoint
	{
		OFFSET 0 0 0
		CHANNELS 3 Zrotation Yrotation Xrotation
		JOINT LeftUpLeg
		{
			OFFSET 1.54859 -1.61379 0.86856
			CHANNELS 3 Zrotation Yrotation Xrotation
			JOINT LeftLeg
			{
				OFFSET 2.25087 -6.18423 0.00000
				CHANNELS 3 Zrotation Yrotation Xrotation
				JOINT LeftFoot
				{
					OFFSET 2.40328 -6.60297 0.00000
					CHANNELS 3 Zrotation Yrotation Xrotation
					JOINT LeftToeBase
					{
						OFFSET 0.17435 -0.47901 2.02453
						CHANNELS 3 Zrotation Yrotation Xrotation
						End Site
						{
							OFFSET 0.00000 -0.00000 1.04844
						}
					}
				}
			}
		}
	}
	JOINT RHipJoint
	{
		OFFSET 0 0 0
		CHANNELS 3 Zrotation Yrotation Xrotation
		JOINT RightUpLeg
		{
			OFFSET -1.54669 -1.61379 0.86856
			CHANNELS 3 Zrotation Yrotation Xrotation
			JOINT RightLeg
			{
				OFFSET -2.28132 -6.26789 0.00000
				CHANNELS 3 Zrotation Yrotation Xrotation
				JOINT RightFoot
				{
					OFFSET -2.51636 -6.91365 0.00000
					CHANNELS 3 Zrotation Yrotation Xrotation
					JOINT RightToeBase
					{
						OFFSET -0.15124 -0.41552 2.21090
						CHANNELS 3 Zrotation Yrotation Xrotation
						End Site
						{
							OFFSET -0.00000 -0.00000 1.13399
						}
					}
				}
			}
		}
	}
	JOINT LowerBack
	{
		OFFSET 0 0 0
		CHANNELS 3 Zrotation Yrotation Xrotation
		JOINT Spine
		{
			OFFSET -0.04287 2.26161 -0.25690
			CHANNELS 3 Zrotation Yrotation Xrotation
			JOINT Spine1
			{
				OFFSET 0.02248 2.28395 -0.10140
				CHANNELS 3 Zrotation Yrotation Xrotation
				JOINT Neck
				{
					OFFSET 0 0 0
					CHANNELS 3 Zrotation Yrotation Xrotation
					JOINT Neck1
					{
						OFFSET -0.11644 1.38496 0.11345
						CHANNELS 3 Zrotation Yrotation Xrotation
						JOINT Head
						{
							OFFSET 0.29383 1.36600 0.06642
							CHANNELS 3 Zrotation Yrotation Xrotation
							End Site
							{
								OFFSET 0.11075 1.41395 -0.00294
							}
						}
					}
				}
				JOINT LeftShoulder
				{
					OFFSET 0 0 0
					CHANNELS 3 Zrotation Yrotation Xrotation
					JOINT LeftArm
					{
						OFFSET 3.51628 0.59542 -0.30346
						CHANNELS 3 Zrotation Yrotation Xrotation
						JOINT LeftForeArm
						{
							OFFSET 4.76405 -0.00000 0.00000
							CHANNELS 3 Zrotation Yrotation Xrotation
							JOINT LeftHand
							{
								OFFSET 3.13759 -0.00000 -0.00000
								CHANNELS 3 Zrotation Yrotation Xrotation
								JOINT LeftFingerBase
								{
									OFFSET 0 0 0
									CHANNELS 3 Zrotation Yrotation Xrotation
									JOINT LeftHandIndex1
									{
										OFFSET 0.73226 -0.00000 -0.00000
										CHANNELS 3 Zrotation Yrotation Xrotation
										End Site
										{
											OFFSET 0.59037 -0.00000 -0.00000
										}
									}
								}
								JOINT LThumb
								{
									OFFSET 0 0 0
									CHANNELS 3 Zrotation Yrotation Xrotation
									End Site
									{
										OFFSET 0.59938 -0.00000 0.59938
									}
								}
							}
						}
					}
				}
				JOINT RightShoulder
				{
					OFFSET 0 0 0
					CHANNELS 3 Zrotation Yrotation Xrotation
					JOINT RightArm
					{
						OFFSET -3.30990 0.84213 -0.36430
						CHANNELS 3 Zrotation Yrotation Xrotation
						JOINT RightForeArm
						{
							OFFSET -5.10161 -0.00000 -0.00000
							CHANNELS 3 Zrotation Yrotation Xrotation
							JOINT RightHand
							{
								OFFSET -3.23267 -0.00000 -0.00000
								CHANNELS 3 Zrotation Yrotation Xrotation
								JOINT RightFingerBase
								{
									OFFSET 0 0 0
									CHANNELS 3 Zrotation Yrotation Xrotation
									JOINT RightHandIndex1
									{
										OFFSET -0.70200 -0.00000 -0.00000
										CHANNELS 3 Zrotation Yrotation Xrotation
										End Site
										{
											OFFSET -0.56597 -0.00000 -0.00000
										}
									}
								}
								JOINT RThumb
								{
									OFFSET 0 0 0
									CHANNELS 3 Zrotation Yrotation Xrotation
									End Site
									{
										OFFSET -0.57461 -0.00000 0.57461
									}
								}
							}
						}
					}
				}
			}
		}
	}
}
MOTION
Frames: 7
Frame Time: .0083333
-32.5506 14.8468 -13.9076 0 0 0 0 0 0 -21 0 0 0 0 0 0 0 0 0 0 0 0 0 0 21 0 0 0 0 0 0 0 0 0 0 0 0 0 0 0 0 0 0 0 0 0 0 -16 0 0 21 0 0 11 0 0 0 -8 0 0 0 0 0 0 0 0 0 0 0 0 0 0 0 0 0 0 0 0 8 0 0 0 0 0 0 0 0 0 0 0 0 0 0 0 0 0
-32.5506 14.8468 -13.9076 34.9786 69.9670 57.7761 0.0000 0.0000 0.0000 -27.5656 17.8426 18.0911 0.0000 0.0000 0.0000 3.4286 1.0933 -35.4997 0.6079 -4.9907 -13.8820 0.0000 0.0000 0.0000 -0.2107 27.8843 -78.5142 -11.2126 -18.0376 63.4701 -0.1514 -0.5369 -7.5638 -3.9627 12.1106 -36.1243 -16.6617 -4.4882 -2.9471 3.7888 -5.4015 1.5495 13.1302 -3.3196 5.3223 -12.8409 -3.2562 -3.9810 13.3721 -3.0095 -10.6148 6.2335 -1.3101 -2.0022 0.0000 -0.0000 0.0000 -80.5559 15.7750 55.3888 102.5105 -59.4003 -70.8126 -0.0000 0.0000 -18.2670 21.8572 18.7325 7.3406 -7.1250 0.0000 -0.0000 -6.2846 49.9469 -0.7691 0.0000 -0.0000 0.0000 78.6101 8.9170 -8.3504 -119.1054 56.5436 -84.9136 0.0000 -0.0000 -35.6150 -18.1914 18.3284 -5.8999 7.1250 -0.0000 -0.0000 6.4704 -10.8517 5.1705
-31.8827 14.9603 -13.8236 36.8343 69.7806 59.4170 0.0000 0.0000 0.0000 -27.9161 17.8552 19.4801 0.0000 0.0000 0.0000 3.3857 2.4306 -35.7398 2.0608 8.9916 25.7692 0.0000 0.0000 0.0000 0.8396 26.4520 -76.4504 -9.7231 -17.2512 58.5588 -0.1797 -0.2733 -8.1100 -3.9919 12.1496 -36.2632 -16.3869 -5.0244 -3.1260 3.8313 -6.1056 1.5412 12.8974 -3.6886 5.6395 -13.1345 -2.7391 -4.0397 12.8496 -2.3258 -10.6769 6.1253 -0.9426 -2.1142 0.0000 0.0000 0.0000 -80.4894 17.6776 54.7513 99.8033 -59.6337 -68.4795 -0.0000 0.0000 -17.9391 31.0357 44.9005 23.0126 -7.1250 0.0000 -0.0000 -18.3521 78.7827 -14.5062 0.0000 0.0000 0.0000 79.7197 9.6966 -6.0399 -123.0096 55.4531 -88.1508 0.0000 -0.0000 -33.0441 -18.8168 18.5543 -6.1884 7.1250 -0.0000 -0.0000 6.0731 -10.5412 4.8878
-31.2614 14.9688 -13.7582 38.2955 69.7455 60.5833 0.0000 0.0000 0.0000 -28.0267 18.1626 21.5761 0.0000 0.0000 0.0000 3.1979 3.1258 -35.0211 7.1366 15.4458 49.3890 0.0000 0.0000 0.0000 2.0281 25.0699 -74.7394 -8.3075 -16.3408 53.6628 -0.1501 0.0320 -7.3044 -3.6376 11.6619 -34.5461 -15.7378 -5.1085 -2.9681 3.6382 -6.2670 1.4874 12.2850 -3.7182 5.4409 -12.3090 -2.4760 -4.0265 12.0887 -2.0316 -10.7479 5.7467 -0.8062 -2.2040 0.0000 0.0000 0.0000 -79.5476 19.5229 55.3411 96.2866 -59.8501 -65.4416 -0.0000 0.0000 -17.7162 36.5359 27.2225 18.7234 -7.1250 0.0000 -0.0000 7.9821 62.4356 3.3939 0.0000 0.0000 0.0000 81.2789 10.3582 -4.4891 -126.9195 54.1648 -91.3466 0.0000 -0.0000 -29.3740 -18.8017 19.0561 -6.3429 7.1250 -0.0000 -0.0000 6.1106 -10.0234 4.9830
-30.5477 15.2676 -13.6325 38.9391 69.7488 61.1399 0.0000 0.0000 0.0000 -28.9926 18.8364 22.9876 0.0000 0.0000 0.0000 3.3168 -14.3828 -33.0500 3.6333 11.6558 34.5250 0.0000 0.0000 0.0000 4.3365 23.3845 -70.8910 -6.7907 -15.1531 48.0783 -0.1441 0.2497 -7.0846 -3.1063 10.8651 -31.8264 -15.2331 -5.2987 -3.0813 3.8668 -6.5347 1.5463 12.1993 -3.8606 5.6275 -11.9712 -2.1861 -4.8998 11.1089 -1.6385 -10.3839 5.3678 -0.5739 -2.0296 -0.0000 0.0000 0.0000 -79.7374 21.0233 55.4589 91.5869 -59.9905 -61.3742 -0.0000 0.0000 -17.8529 38.6669 12.5093 9.8330 -7.1250 0.0000 -0.0000 10.7479 45.5633 0.1512 -0.0000 0.0000 0.0000 81.9197 11.8722 -2.2231 -130.2019 52.9138 -93.9870 0.0000 -0.0000 -24.6808 -18.3348 19.4407 -6.2942 7.1250 -0.0000 -0.0000 6.4350 -9.6855 5.2950
-29.8563 15.4804 -13.5217 39.0729 69.6476 61.3303 0.0000 0.0000 0.0000 -30.0119 19.7873 24.5393 0.0000 0.0000 0.0000 1.2823 -28.8762 -27.1477 0.8954 6.0311 16.8748 0.0000 0.0000 0.0000 6.2935 21.8520 -67.7542 -5.5529 -13.9806 43.1597 -0.1077 0.1154 -6.1576 -2.5398 9.9099 -28.6854 -14.3848 -5.5336 -3.2449 3.8401 -6.8672 1.4786 11.6119 -3.9903 5.6399 -11.2761 -1.7500 -5.5396 10.1343 -1.0782 -10.1242 4.9404 -0.2810 -1.9377 0.0000 0.0000 0.0000 -79.7534 22.9516 55.2190 86.6944 -59.9587 -57.1376 -0.0000 0.0000 -18.5399 37.9085 14.5779 11.0894 -7.1250 0.0000 -0.0000 10.1200 47.9613 0.7465 0.0000 0.0000 0.0000 82.7655 13.1152 1.0786 -133.2590 51.5935 -96.4047 0.0000 -0.0000 -19.1081 -17.9147 19.6959 -6.2180 7.1250 -0.0000 -0.0000 6.7206 -9.4762 5.5619
-29.1830 15.6293 -13.4388 39.8443 69.6787 61.3457 0.0000 0.0000 0.0000 -31.2963 15.7176 12.6904 2.3136 9.4908 27.3430 0.4047 -21.4767 -18.0810 0.8790 5.9770 16.7178 0.0000 0.0000 0.0000 8.7767 19.6259 -63.9323 -4.5294 -12.8334 38.7480 -0.0505 -1.0803 -4.7884 -4.1506 12.3581 -37.0109 -13.8953 -5.5781 -2.9296 3.9700 -6.9738 1.9438 11.4653 -4.0800 5.9585 -10.7534 -1.4650 -5.8954 9.1335 -0.6865 -10.8481 4.5499 -0.0599 -2.1546 -0.0000 0.0000 0.0000 -80.2252 23.9606 55.3240 80.7679 -59.6755 -52.0135 -0.0000 0.0000 -19.4359 37.3448 16.4644 12.2028 -7.1250 0.0000 -0.0000 9.6014 50.1274 1.2234 -0.0000 0.0000 0.0000 82.6822 14.9081 4.3791 -135.8792 50.3304 -98.4402 0.0000 -0.0000 -13.1482 -17.3465 19.6595 -5.9990 7.1250 -0.0000 -0.0000 7.0856 -9.5851 5.8530
